<?xml version="1.0" encoding="utf-8"?>
<!-- Generator: Adobe Illustrator 25.0.1, SVG Export Plug-In . SVG Version: 6.00 Build 0)  -->
<svg version="1.1" id="Capa_1" xmlns="http://www.w3.org/2000/svg" xmlns:xlink="http://www.w3.org/1999/xlink" x="0px" y="0px"
	 viewBox="0 0 500 500" style="enable-background:new 0 0 500 500;" xml:space="preserve">
<style type="text/css">
	.st0{fill:#D33131;}
	.st1{fill:#1D1D1B;}
</style>
<g>
	<g>
		<polygon class="st0" points="212.36,217.68 205.44,226.75 123.76,226.75 130.67,217.68 114,217.68 114,315.86 223.79,315.86 
			223.79,217.68 217.81,217.68 		"/>
	</g>
	<g>
		<polygon class="st0" points="232.67,191.05 150.99,191.05 130.67,217.68 212.36,217.68 		"/>
	</g>
</g>
<g>
	<path class="st1" d="M64.73,327.97H53.92v7.14h9.59v4.53h-9.59v7.55h10.81v4.65H48.21v-28.51h16.52V327.97z"/>
	<path class="st1" d="M75.62,323.36v23.95h9.38v4.53H69.91v-28.47H75.62z"/>
	<path class="st1" d="M105.16,327.97H94.35v7.14h9.59v4.53h-9.59v7.55h10.81v4.65H88.64v-28.51h16.52V327.97z"/>
	<path class="st1" d="M136.73,331.92h-6.57c-1.31-2.41-3.67-3.67-6.69-3.67c-5.1,0-8.65,3.63-8.65,9.3c0,5.79,3.59,9.38,8.89,9.38
		c4.41,0,7.22-2.53,8.08-6.57H122V336h15.42v4.98c-1.14,5.79-6.32,11.1-13.91,11.1c-8.28,0-14.56-6-14.56-14.52
		c0-8.53,6.28-14.56,14.52-14.56C129.83,322.99,134.89,326.21,136.73,331.92z"/>
	<path class="st1" d="M141.66,323.36h5.71v28.47h-5.71V323.36z"/>
	<path class="st1" d="M153,323.36h6.49l9.06,21.17l9.06-21.17h6.45v28.47h-5.71v-18.52l-7.63,18.52h-4.32l-7.67-18.52v18.52H153
		V323.36z"/>
	<path class="st1" d="M202.89,352.11c-8.04,0-14.6-6.04-14.6-14.6c0-8.53,6.57-14.56,14.6-14.56c8.12,0,14.56,6.04,14.56,14.56
		C217.45,346.08,210.96,352.11,202.89,352.11z M202.89,347.02c5.14,0,8.69-3.71,8.69-9.5c0-5.79-3.55-9.42-8.69-9.42
		c-5.18,0-8.73,3.63-8.73,9.42C194.16,343.3,197.7,347.02,202.89,347.02z"/>
	<path class="st1" d="M231.52,352.11c-5.91,0-10.48-3.1-10.56-8.48h6.12c0.16,2.28,1.67,3.79,4.32,3.79c2.69,0,4.28-1.43,4.28-3.47
		c0-6.16-14.69-2.45-14.64-12.77c0-5.14,4.16-8.24,10.04-8.24c5.83,0,9.83,2.98,10.2,8.12h-6.28c-0.12-1.88-1.63-3.35-4.08-3.39
		c-2.24-0.08-3.92,1.02-3.92,3.35c0,5.71,14.6,2.53,14.6,12.56C241.59,348.08,238,352.11,231.52,352.11z"/>
	<path class="st1" d="M249.06,352.11c-2.08,0-3.55-1.47-3.55-3.34c0-1.88,1.47-3.35,3.55-3.35c2,0,3.47,1.47,3.47,3.35
		C252.52,350.65,251.06,352.11,249.06,352.11z"/>
	<path class="st1" d="M267.62,340.9h-4.77v10.93h-5.71v-28.47h10.48c6.85,0,10.28,3.88,10.28,8.81
		C277.9,336.49,274.96,340.9,267.62,340.9z M267.37,336.29c3.22,0,4.65-1.59,4.65-4.12c0-2.61-1.43-4.16-4.65-4.16h-4.53v8.28
		H267.37z"/>
	<path class="st1" d="M298.45,327.97h-10.81v7.14h9.59v4.53h-9.59v7.55h10.81v4.65h-16.52v-28.51h16.52V327.97z"/>
</g>
</svg>
