<?xml version="1.0" encoding="utf-8"?>
<!-- Generator: Adobe Illustrator 25.0.1, SVG Export Plug-In . SVG Version: 6.00 Build 0)  -->
<svg version="1.1" id="Capa_1" xmlns="http://www.w3.org/2000/svg" xmlns:xlink="http://www.w3.org/1999/xlink" x="0px" y="0px"
	 viewBox="0 0 500 500" style="enable-background:new 0 0 500 500;" xml:space="preserve">
<style type="text/css">
	.st0{fill:#D33131;}
	.st1{fill:#1D1D1B;}
</style>
<g>
	<g>
		<polygon class="st0" points="73.21,93.61 69.74,98.17 28.66,98.17 32.13,93.61 23.75,93.61 23.75,142.98 78.96,142.98 
			78.96,93.61 75.95,93.61 		"/>
	</g>
	<g>
		<polygon class="st0" points="83.43,80.22 42.35,80.22 32.13,93.61 73.21,93.61 		"/>
	</g>
</g>
<g>
	<path class="st1" d="M110.8,103.5H94.08v11.04h14.83v7.01H94.08v11.67h16.72v7.19H85.24V96.3h25.56V103.5z"/>
	<path class="st1" d="M127.65,96.37v37.04h14.51v7.01h-23.35V96.37H127.65z"/>
	<path class="st1" d="M173.33,103.5h-16.72v11.04h14.83v7.01h-14.83v11.67h16.72v7.19h-25.56V96.3h25.56V103.5z"/>
	<path class="st1" d="M222.18,109.62h-10.16c-2.02-3.72-5.68-5.68-10.35-5.68c-7.89,0-13.38,5.62-13.38,14.39
		c0,8.96,5.55,14.51,13.76,14.51c6.82,0,11.17-3.91,12.5-10.16h-15.15v-6.75h23.85v7.7c-1.77,8.96-9.78,17.17-21.52,17.17
		c-12.81,0-22.53-9.28-22.53-22.47c0-13.19,9.72-22.53,22.47-22.53C211.51,95.8,219.34,100.78,222.18,109.62z"/>
	<path class="st1" d="M229.81,96.37h8.83v44.05h-8.83V96.37z"/>
	<path class="st1" d="M247.35,96.37h10.03l14.01,32.75l14.01-32.75h9.97v44.05h-8.83v-28.65l-11.8,28.65h-6.69l-11.86-28.65v28.65
		h-8.83V96.37z"/>
	<path class="st1" d="M324.52,140.86c-12.43,0-22.59-9.34-22.59-22.59c0-13.19,10.16-22.53,22.59-22.53
		c12.56,0,22.53,9.34,22.53,22.53C347.05,131.52,337.02,140.86,324.52,140.86z M324.52,132.97c7.95,0,13.44-5.74,13.44-14.7
		c0-8.96-5.49-14.58-13.44-14.58c-8.01,0-13.51,5.62-13.51,14.58C311.02,127.23,316.51,132.97,324.52,132.97z"/>
	<path class="st1" d="M368.82,140.86c-9.15,0-16.22-4.8-16.34-13.13h9.47c0.25,3.53,2.59,5.87,6.69,5.87c4.16,0,6.63-2.21,6.63-5.36
		c0-9.53-22.72-3.79-22.66-19.75c0-7.95,6.44-12.75,15.53-12.75c9.02,0,15.21,4.61,15.78,12.56h-9.72c-0.19-2.9-2.53-5.18-6.31-5.24
		c-3.47-0.13-6.06,1.58-6.06,5.18c0,8.83,22.59,3.91,22.59,19.44C384.41,134.61,378.85,140.86,368.82,140.86z"/>
	<path class="st1" d="M395.95,140.86c-3.22,0-5.49-2.27-5.49-5.17c0-2.9,2.27-5.18,5.49-5.18c3.09,0,5.37,2.27,5.37,5.18
		C401.32,138.59,399.04,140.86,395.95,140.86z"/>
	<path class="st1" d="M424.66,123.5h-7.38v16.91h-8.84V96.37h16.22c10.6,0,15.9,6,15.9,13.63
		C440.57,116.69,436.02,123.5,424.66,123.5z M424.29,116.37c4.99,0,7.19-2.46,7.19-6.37c0-4.04-2.21-6.44-7.19-6.44h-7v12.81H424.29
		z"/>
	<path class="st1" d="M472.37,103.5h-16.72v11.04h14.83v7.01h-14.83v11.67h16.72v7.19h-25.56V96.3h25.56V103.5z"/>
</g>
<g>
	<g>
		<polygon class="st0" points="212.36,217.68 205.44,226.75 123.76,226.75 130.67,217.68 114,217.68 114,315.86 223.79,315.86 
			223.79,217.68 217.81,217.68 		"/>
	</g>
	<g>
		<polygon class="st0" points="232.67,191.05 150.99,191.05 130.67,217.68 212.36,217.68 		"/>
	</g>
</g>
<g>
	<g>
		<g>
			<polygon class="st0" points="437.48,363.15 429.15,374.07 330.73,374.07 339.06,363.15 318.97,363.15 318.97,481.44 
				451.25,481.44 451.25,363.15 444.05,363.15 			"/>
		</g>
	</g>
	<g>
		<g>
			<polygon class="st0" points="461.95,331.06 363.54,331.06 339.06,363.15 437.48,363.15 			"/>
		</g>
	</g>
</g>
<g>
	<path class="st1" d="M64.73,327.97H53.92v7.14h9.59v4.53h-9.59v7.55h10.81v4.65H48.21v-28.51h16.52V327.97z"/>
	<path class="st1" d="M75.62,323.36v23.95h9.38v4.53H69.91v-28.47H75.62z"/>
	<path class="st1" d="M105.16,327.97H94.35v7.14h9.59v4.53h-9.59v7.55h10.81v4.65H88.64v-28.51h16.52V327.97z"/>
	<path class="st1" d="M136.73,331.92h-6.57c-1.31-2.41-3.67-3.67-6.69-3.67c-5.1,0-8.65,3.63-8.65,9.3c0,5.79,3.59,9.38,8.89,9.38
		c4.41,0,7.22-2.53,8.08-6.57H122V336h15.42v4.98c-1.14,5.79-6.32,11.1-13.91,11.1c-8.28,0-14.56-6-14.56-14.52
		c0-8.53,6.28-14.56,14.52-14.56C129.83,322.99,134.89,326.21,136.73,331.92z"/>
	<path class="st1" d="M141.66,323.36h5.71v28.47h-5.71V323.36z"/>
	<path class="st1" d="M153,323.36h6.49l9.06,21.17l9.06-21.17h6.45v28.47h-5.71v-18.52l-7.63,18.52h-4.32l-7.67-18.52v18.52H153
		V323.36z"/>
	<path class="st1" d="M202.89,352.11c-8.04,0-14.6-6.04-14.6-14.6c0-8.53,6.57-14.56,14.6-14.56c8.12,0,14.56,6.04,14.56,14.56
		C217.45,346.08,210.96,352.11,202.89,352.11z M202.89,347.02c5.14,0,8.69-3.71,8.69-9.5c0-5.79-3.55-9.42-8.69-9.42
		c-5.18,0-8.73,3.63-8.73,9.42C194.16,343.3,197.7,347.02,202.89,347.02z"/>
	<path class="st1" d="M231.52,352.11c-5.91,0-10.48-3.1-10.56-8.48h6.12c0.16,2.28,1.67,3.79,4.32,3.79c2.69,0,4.28-1.43,4.28-3.47
		c0-6.16-14.69-2.45-14.64-12.77c0-5.14,4.16-8.24,10.04-8.24c5.83,0,9.83,2.98,10.2,8.12h-6.28c-0.12-1.88-1.63-3.35-4.08-3.39
		c-2.24-0.08-3.92,1.02-3.92,3.35c0,5.71,14.6,2.53,14.6,12.56C241.59,348.08,238,352.11,231.52,352.11z"/>
	<path class="st1" d="M249.06,352.11c-2.08,0-3.55-1.47-3.55-3.34c0-1.88,1.47-3.35,3.55-3.35c2,0,3.47,1.47,3.47,3.35
		C252.52,350.65,251.06,352.11,249.06,352.11z"/>
	<path class="st1" d="M267.62,340.9h-4.77v10.93h-5.71v-28.47h10.48c6.85,0,10.28,3.88,10.28,8.81
		C277.9,336.49,274.96,340.9,267.62,340.9z M267.37,336.29c3.22,0,4.65-1.59,4.65-4.12c0-2.61-1.43-4.16-4.65-4.16h-4.53v8.28
		H267.37z"/>
	<path class="st1" d="M298.45,327.97h-10.81v7.14h9.59v4.53h-9.59v7.55h10.81v4.65h-16.52v-28.51h16.52V327.97z"/>
</g>
</svg>
