<?xml version="1.0" encoding="utf-8"?>
<!-- Generator: Adobe Illustrator 25.0.1, SVG Export Plug-In . SVG Version: 6.00 Build 0)  -->
<svg version="1.1" id="Capa_1" xmlns="http://www.w3.org/2000/svg" xmlns:xlink="http://www.w3.org/1999/xlink" x="0px" y="0px"
	 viewBox="0 0 500 500" style="enable-background:new 0 0 500 500;" xml:space="preserve">
<style type="text/css">
	.st0{fill:#D33131;}
	.st1{fill:#1D1D1B;}
</style>
<g>
	<g>
		<polygon class="st0" points="73.21,93.61 69.74,98.17 28.66,98.17 32.13,93.61 23.75,93.61 23.75,142.98 78.96,142.98 
			78.96,93.61 75.95,93.61 		"/>
	</g>
	<g>
		<polygon class="st0" points="83.43,80.22 42.35,80.22 32.13,93.61 73.21,93.61 		"/>
	</g>
</g>
<g>
	<path class="st1" d="M110.8,103.5H94.08v11.04h14.83v7.01H94.08v11.67h16.72v7.19H85.24V96.3h25.56V103.5z"/>
	<path class="st1" d="M127.65,96.37v37.04h14.51v7.01h-23.35V96.37H127.65z"/>
	<path class="st1" d="M173.33,103.5h-16.72v11.04h14.83v7.01h-14.83v11.67h16.72v7.19h-25.56V96.3h25.56V103.5z"/>
	<path class="st1" d="M222.18,109.62h-10.16c-2.02-3.72-5.68-5.68-10.35-5.68c-7.89,0-13.38,5.62-13.38,14.39
		c0,8.96,5.55,14.51,13.76,14.51c6.82,0,11.17-3.91,12.5-10.16h-15.15v-6.75h23.85v7.7c-1.77,8.96-9.78,17.17-21.52,17.17
		c-12.81,0-22.53-9.28-22.53-22.47c0-13.19,9.72-22.53,22.47-22.53C211.51,95.8,219.34,100.78,222.18,109.62z"/>
	<path class="st1" d="M229.81,96.37h8.83v44.05h-8.83V96.37z"/>
	<path class="st1" d="M247.35,96.37h10.03l14.01,32.75l14.01-32.75h9.97v44.05h-8.83v-28.65l-11.8,28.65h-6.69l-11.86-28.65v28.65
		h-8.83V96.37z"/>
	<path class="st1" d="M324.52,140.86c-12.43,0-22.59-9.34-22.59-22.59c0-13.19,10.16-22.53,22.59-22.53
		c12.56,0,22.53,9.34,22.53,22.53C347.05,131.52,337.02,140.86,324.52,140.86z M324.52,132.97c7.95,0,13.44-5.74,13.44-14.7
		c0-8.96-5.49-14.58-13.44-14.58c-8.01,0-13.51,5.62-13.51,14.58C311.02,127.23,316.51,132.97,324.52,132.97z"/>
	<path class="st1" d="M368.82,140.86c-9.15,0-16.22-4.8-16.34-13.13h9.47c0.25,3.53,2.59,5.87,6.69,5.87c4.16,0,6.63-2.21,6.63-5.36
		c0-9.53-22.72-3.79-22.66-19.75c0-7.95,6.44-12.75,15.53-12.75c9.02,0,15.21,4.61,15.78,12.56h-9.72c-0.19-2.9-2.53-5.18-6.31-5.24
		c-3.47-0.13-6.06,1.58-6.06,5.18c0,8.83,22.59,3.91,22.59,19.44C384.41,134.61,378.85,140.86,368.82,140.86z"/>
	<path class="st1" d="M395.95,140.86c-3.22,0-5.49-2.27-5.49-5.17c0-2.9,2.27-5.18,5.49-5.18c3.09,0,5.37,2.27,5.37,5.18
		C401.32,138.59,399.04,140.86,395.95,140.86z"/>
	<path class="st1" d="M424.66,123.5h-7.38v16.91h-8.84V96.37h16.22c10.6,0,15.9,6,15.9,13.63
		C440.57,116.69,436.02,123.5,424.66,123.5z M424.29,116.37c4.99,0,7.19-2.46,7.19-6.37c0-4.04-2.21-6.44-7.19-6.44h-7v12.81H424.29
		z"/>
	<path class="st1" d="M472.37,103.5h-16.72v11.04h14.83v7.01h-14.83v11.67h16.72v7.19h-25.56V96.3h25.56V103.5z"/>
</g>
</svg>
